<?xml version="1.0" encoding="UTF-8"?>
<svg id="Layer_1" xmlns="http://www.w3.org/2000/svg" version="1.1" viewBox="0 0 612 792">
  <!-- Generator: Adobe Illustrator 30.2.1, SVG Export Plug-In . SVG Version: 2.1.1 Build 1)  -->
  <defs>
    <style>
      .st0 {
        fill: #163d59;
      }

      .st1 {
        fill: #0d2a3e;
      }

      .st2 {
        fill: #fff;
      }

      .st3 {
        fill: #265e8b;
      }
    </style>
  </defs>
  <g>
    <polygon class="st3" points="343.29 540.19 415.76 395.34 343.27 250.45 270.82 395.32 343.29 540.19"/>
    <polygon class="st1" points="201.33 394.67 270.85 394.67 342.82 250.7 273.3 250.45 201.33 394.67"/>
    <polygon class="st0" points="273.32 540.19 343.29 540.02 270.82 394.86 200.87 394.86 273.32 540.19"/>
  </g>
  <path class="st2" d="M159,406.12v116.57s-48.84,0-48.84,0v-260.5s48.84,0,48.84,0l-2.01,114.06h6.13l79.19-125.8h37l-76.84,142.47,76.86,147.26-49.07,1.53-58.23-135.6h-13.03Z"/>
  <path class="st2" d="M445.48,406.12l-58.23,135.6-49.07-1.53,76.86-147.26-76.84-142.47h37s79.19,125.8,79.19,125.8h6.13s-2.01-114.06-2.01-114.06h48.84s0,260.5,0,260.5h-48.84s0-116.57,0-116.57h-13.03Z"/>
</svg>